<?xml version="1.0" encoding="UTF-8" standalone="no"?>
<svg id="svg2" xmlns:rdf="http://www.w3.org/1999/02/22-rdf-syntax-ns#" xmlns="http://www.w3.org/2000/svg" height="2265pt" width="1200pt" version="1.1" xmlns:cc="http://creativecommons.org/ns#" xmlns:dc="http://purl.org/dc/elements/1.1/" viewBox="0 0 1200 2265">
<g id="g4309" transform="translate(-1600)">
<path id="rect4306" d="m1979.6 11.108c-2.0121 0.03147-3.9964 0.16094-5.9172 0.37187-18.55 2.83-40.789 10.9-46.459 30.67-36.06 31.46-73.71 61.35-110.18 92.42 8.71 61.93 19.51 123.64 28.92 185.48 2.75 4.08-0.8409 4.96-3.1609 5.8-18.43 4.13-37.259 7.7003-54.709 15.17-12.3 4.2-13.561 19.259-17.211 29.839-11.31 45.44-15.5 93.19-8.35 139.62 4.06 24.34 12.54 50.74 34.2 65.07 1.79 7.04-10.59 1.3006-11.88 7.5406-1.53 5.6-4.0994 14.009 1.0906 18.489 6.51 1.19 13.26-0.25907 19.85-0.53907 2.92 14.46 0.39 29.91-2.45 44.23-14.56 1.33-16.071 17.26-10.511 27.57-21.53 5.19-44.08 8.3397-63.75 19.08-5.7 2.79-6.0388 9.7894-6.9688 15.259-1.33 35.97 4.3691 72.511 17.739 105.99 2.77 6.04 5.3297 13.689 12.88 14.809 29.24-0.64 58.47-2.6597 87.72-2.9797 2.97 15.82 12.771 33.81 31.791 30.5 10.84 46.3 20.06 95.79 8.25 142.83-2.88 17.3-26.97 5.2706-35.3 17.941-10.8 15.52-6.4403 35.66-0.4203 51.5-55.6 9.58-111.44 19.48-165.28 36.68-12.96 5.18-29.07 8.6706-36.38 21.691-13.48 40.92-9.9312 84.879-8.4812 127.24 3.5 38.32 5.0503 79.301 24.32 113.59 4.43 11.14 20.65 5.6991 26.05 11.039-14.1 5.29-36.369-5.7597-49.839 6.2203-10.89 14.05-7.9906 33.751-3.0406 49.611 3.38 13.99 20.401 8.7991 30.341 12.739 13.47 60.69 24.429 122.68 22.309 185.1-1.52 19.61-2.78 40.16-11.15 58.27-12.74-0.94-29.519-4.93-36.659 9.15-13.25 23.45-16.141 52.36-11.941 78.62 2.42 14.88 27.041 9.7703 29.491 20.72-21.95 54.19-40.95 110.37-47.25 168.81-2.62 30.63-2.0103 63.689 13.13 91.359 11.51 21.1 34.079 32.041 54.689 42.341 68.4 31.69 140.24 55.1 211.91 78.1 102.38 30.41 206.73 62.91 312.3 74.05 124.79-48.27 249.06-98.05 371.31-152.52 57.32-25.91 114.67-52.15 169-84 18.85-12.16 40.641-22.87 52.491-42.68 4.24-20.87 4.3094-49.441-15.591-62.541-12.72 1.32-24.659 10.321-37.709 10.261-21.59-34.14-40.951-70.171-53.811-108.59-6.04-18.79-10.019-39.19-4.6891-58.65 17.65-10.36 40.739-12.87 54.609-28.65 5.9-28.31 9.0406-59.499-1.4594-87.039-4.18-10.4-15.3-5.3906-23.35-4.6906 33.38-74.64 32.43-160.96 19.3-240.39-7.39-27.8-12.98-60.269-37.12-78.909-25.4-8.84-52.831-1.1294-78.941-1.0094 5.77-26.11-31.669-21.901-35.139-43.861-8.68-39.67-6.5503-80.919-2.3703-121.04 2.59-16.11 3.6797-36.23 19.83-45.12 12.72-12.99 17.29-40 1.1-51.58-23.11-4.84-47.68-5.6809-70.5-10.061 10.57-14.78 15.1-34.6 18.97-52.82 7.98-42.56 14.36-86.1 11.35-129.48 0.08-13.33-15.62-16.97-23.27-23.77-4.24-36.68 9.4206-72.229 22.891-105.81 0.51-1.48 1.4197-4.1297-0.9203-4.3797-45.52-17.26-91.1-34.43-136.67-51.53 1.05-28.25 16.971-61.061 0.9406-87.791-19.95-10.91-43.251-16.8-63.411-26.42 8.86-10.18 9.4506-30.159-5.9094-35.309-14.23-26.56-1.8594-58.531 7.8906-84.561 10.23-3.05 15.509-21.539 5.1688-27.519-52.91-39.77-111.84-70.741-168-105.44-3.81-74.44-5.57-149.03-9.75-223.41-57.2-21.697-114.6-43.999-174-58.309-5.9556-10.644-18.196-14.342-29.903-14.55-0.6755-0.01202-1.3496-0.01202-2.0203-0.0016z" fill="#e20415"/>
<path id="path4" d="m1981.6 11.109c-2.7018-0.04808-5.3763 0.08906-7.9375 0.37031-18.55 2.83-40.789 10.9-46.459 30.67-36.06 31.46-73.71 61.35-110.18 92.42 8.71 61.93 19.51 123.64 28.92 185.48 2.75 4.08-0.8409 4.96-3.1609 5.8-18.43 4.13-37.259 7.7003-54.709 15.17-12.3 4.2-13.561 19.259-17.211 29.839-11.31 45.44-15.5 93.19-8.35 139.62 4.06 24.34 12.54 50.74 34.2 65.07 1.79 7.04-10.59 1.3006-11.88 7.5406-1.53 5.6-4.0994 14.009 1.0906 18.489 6.51 1.19 13.26-0.25907 19.85-0.53907 2.92 14.46 0.39 29.91-2.45 44.23-14.56 1.33-16.071 17.26-10.511 27.57-21.53 5.19-44.08 8.3397-63.75 19.08-5.7 2.79-6.0388 9.7894-6.9688 15.259-1.33 35.97 4.3691 72.511 17.739 105.99 2.77 6.04 5.3297 13.689 12.88 14.809 29.24-0.64 58.47-2.6597 87.72-2.9797 2.97 15.82 12.771 33.81 31.791 30.5 10.84 46.3 20.06 95.79 8.25 142.83-2.88 17.3-26.97 5.2706-35.3 17.941-10.8 15.52-6.4403 35.66-0.4203 51.5-55.6 9.58-111.44 19.48-165.28 36.68-12.96 5.18-29.07 8.6706-36.38 21.691-13.48 40.92-9.9312 84.879-8.4812 127.24 3.5 38.32 5.0503 79.301 24.32 113.59 4.43 11.14 20.65 5.6991 26.05 11.039-14.1 5.29-36.369-5.7597-49.839 6.2203-10.89 14.05-7.9906 33.751-3.0406 49.611 3.38 13.99 20.401 8.7991 30.341 12.739 13.47 60.69 24.429 122.68 22.309 185.1-1.52 19.61-2.78 40.16-11.15 58.27-12.74-0.94-29.519-4.93-36.659 9.15-13.25 23.45-16.141 52.36-11.941 78.62 2.42 14.88 27.041 9.7703 29.491 20.72-21.95 54.19-40.95 110.37-47.25 168.81-2.62 30.63-2.0103 63.689 13.13 91.359 11.51 21.1 34.079 32.041 54.689 42.341 68.4 31.69 140.24 55.1 211.91 78.1 102.38 30.41 206.73 62.91 312.3 74.05 124.79-48.27 249.06-98.05 371.31-152.52 57.32-25.91 114.67-52.15 169-84 18.85-12.16 40.641-22.87 52.491-42.68 4.24-20.87 4.3094-49.441-15.591-62.541-12.72 1.32-24.659 10.321-37.709 10.261-21.59-34.14-40.951-70.171-53.811-108.59-6.04-18.79-10.019-39.19-4.6891-58.65 17.65-10.36 40.739-12.87 54.609-28.65 5.9-28.31 9.0406-59.499-1.4594-87.039-4.18-10.4-15.3-5.3906-23.35-4.6906 33.38-74.64 32.43-160.96 19.3-240.39-7.39-27.8-12.98-60.269-37.12-78.909-25.4-8.84-52.831-1.1294-78.941-1.0094 5.77-26.11-31.669-21.901-35.139-43.861-8.68-39.67-6.5503-80.919-2.3703-121.04 2.59-16.11 3.6797-36.23 19.83-45.12 12.72-12.99 17.29-40 1.1-51.58-23.11-4.84-47.68-5.6809-70.5-10.061 10.57-14.78 15.1-34.6 18.97-52.82 7.98-42.56 14.36-86.1 11.35-129.48 0.08-13.33-15.62-16.97-23.27-23.77-4.24-36.68 9.4206-72.229 22.891-105.81 0.51-1.48 1.4197-4.1297-0.9203-4.3797-45.52-17.26-91.1-34.43-136.67-51.53 1.05-28.25 16.971-61.061 0.9406-87.791-19.95-10.91-43.251-16.8-63.411-26.42 8.86-10.18 9.4506-30.159-5.9094-35.309-14.23-26.56-1.8594-58.531 7.8906-84.561 10.23-3.05 15.509-21.539 5.1688-27.519-52.91-39.77-111.84-70.741-168-105.44-3.81-74.44-5.57-149.03-9.75-223.41-57.2-21.698-114.6-44-174-58.31-5.9556-10.644-18.196-14.342-29.903-14.55zm5.4453 29.636c3.4943 0.000527 6.9781 0.17812 10.428 0.68437 19.43 83.89 35.729 168.58 51.589 253.19-18.76 5.9-38.03 11.169-57.63 12.959-8.09-15.17-10.01-32.62-13.87-49.15-12.04-69.34-22.52-139.01-30.7-208.91 6.03-6.02 14.751-6.9609 22.731-8.0109 5.775-0.275 11.628-0.76494 17.452-0.76406zm40.77 13.675c0.2335-0.0091 0.4813-0.0022 0.7469 0.02031 51.11 5.96 98.861 29.12 146.58 47.75 4.24 65.06 5.9188 131.9 9.9688 197.58-14.98-3.39-28.699-13.581-44.589-11.411-23.38 3.13-46.79 6.2103-70.25 8.5703-14.97-78.48-29.69-157.06-44.8-235.52-1.125-3.2906-1.1597-6.8532 2.3422-6.9891zm-101.85 13.583c1.4301-0.06281 2.5206 0.72688 2.3406 2.6469 10.66 76.32 21.67 152.63 31.5 229.06-31.87 5.49-63.531 12.69-95.491 17.27-12.08-52.55-22.3-105.58-34.18-158.21-1.09-5.99-4.5697-13.631 2.1203-17.591 29.94-25.14 58.01-53.549 92.2-72.839 0.5175-0.2 1.0327-0.31656 1.5094-0.3375zm221 232.1c6.4156-0.0119 0.6488 14.132-5.5047 14.059-85.05 7.9-170.15 18.03-254.08 34.3-22.66 5.77-47.619 8.17-67.259 21.75-36.36 46.56-40.45 122.13 3.1203 165.5 117.91-16.31 235.72-33.72 353.69-49.58 1.96 4.56-0.5091 12.66-1.2891 18.55-99.99 16.74-200.11 33.071-300.63 46.411-22.71 2.63-45.44 6.3688-68.35 5.9188-21.68-12.73-29.941-39.119-32.991-62.739-5.59-47.42 3.75-95.26 17-140.68 117.96-17.66 235.93-35.33 353.9-53 0.9375-0.33562 1.7316-0.48939 2.3953-0.49062zm20.234 4.15c14.3 2.63 26.701 12.34 39.591 18.87 46.92 27.89 93.799 56.359 136.69 90.239 3.85 2.56 14.121 12.431 2.3312 8.9609-63.75-28.24-123.47-64.9-183.78-99.72 1.97-5.73 1.4903-13.67 5.1703-18.35zm-22.497 33.828c3.6778-0.24803-0.065 7.5859 1.2766 9.8516 1.66 38.17 2.9 79.111 21.6 113.24-84.82 15.49-172.27 30.229-258.68 41.809-24.79 2.93-49.629 6.84-74.659 6-7.43-0.35-9.0209-9.0991-11.661-14.639-8.23-29.38-13.319-62.211-1.7391-91.381 7.36-19.25 31.04-19.319 47.87-24.159 90.81-17.86 182.83-28.73 274.6-40.37 0.5532-0.21375 1.0118-0.32591 1.3922-0.35156zm19.167 13.102c52.89 18.93 105.31 39.63 156.06 63.8 8.63 5.31 20.97 9.2303 24.92 18.72-7.15 5.25-13.7 11.7-13.78 21.45-3.15 24.3-0.3603 49.02 4.8297 72.85-40.94-12.23-81.629-25.99-120.01-44.97-16.83-8.76-34.33-19.849-41.9-38.109-13.02-29.32-11.25-62.491-10.12-93.741zm-62.169 7.7828c-4.1441-0.068-9.0053 0.80906-12.161 0.56719-34.89 3.54-67.3 17.991-101.25 25.761-2.68-0.26-3.3397 3.3994-0.2797 2.8094 41.87 0.31 80.049-20.011 120.92-26.291-1.2163-2.17-4.0049-2.794-7.2282-2.8469zm3.3407 39.942c-5.9938 0.055-12.177 0.91593-17.522 0.63593-21.11 1.9-42.641 3.9891-62.541 11.689-0.34 5.7 8.1606 1.0906 11.341 2.2406 28.43-2.73 56.989-5.2803 85.109-10.37-4.59-3.5-10.394-4.2503-16.388-4.1953zm90.338 92.236c50.3 13.03 97.39 37.529 144.42 59.009-47.81-11.33-96.13-21.52-142.8-37-10.51-2.92-9.9803-17.109-1.6203-22.009zm-26.205 37.195c9.114 0.24929 26.474 15.426 6.6047 14.534-118.11 18.63-237.51 27.499-356.4 39.659-2.1 1.16-15.24 0.24031-3.75-0.87969 117.61-17.37 235.18-35.231 352.69-53.291 0.2753-0.0241 0.5607-0.0315 0.8547-0.0234zm48.005 27.844c36.95 1.65 72.281 15.59 107.96 24.6 27.3 7.8 54.779 15.361 81.609 24.561 3.49 13.37 5.5697 27.31 4.8797 41.13-0.45 6.79-4.1788 16.36-12.869 14.48-23.94-2.08-47.171-9.1306-70.861-12.941 71.3 25.25 142.06 52.37 211.91 81.3-1.07 10.67-13.971 14.72-22.691 9.65-72.04-24.02-141.8-54.259-211.98-83.109-7.37-1.23-8.4397-8.6897-9.0297-14.93-30.66-7.11-61.941-12.75-92.211-20.78 12.89-18.51 12.51-42.391 13.28-63.961zm-34.162 14.327c13.233-0.31626 14.544 21.198 4.6531 29.294-13.53 17.07-36.81 16.861-56.32 20.641-87.98 11.61-176.82 14.829-265.42 17.619-15.78-1.12-32.79 2.1-47.95-1.95 4.42-10.05 2.3212-20.98 3.2312-31.55 45.2-9.23 91.63-11.56 137.53-15.75 72.23-6.04 144.53-11.119 216.82-16.239 2.8069-1.3753 5.2909-2.0123 7.4563-2.0641zm-100.48 68.123c7.2374 0.0226 14.444 0.41093 21.566 1.6109-96.33 9.62-193.21 17.749-289.8 25.739-3.72-3.42-5.73-9.9797-7.15-15.13 79.73-3.7 159.41-8.9203 239.2-11.37 11.975 0.0875 24.122-0.8877 36.184-0.85zm189.7 1.2125c2.0882 0.009 4.1766 0.0578 6.2641 0.15782 2.78 3.44 1.2197 10.71-3.6703 11.1-140.33 15.89-280.68 31.929-420.6 51.209-37.03 6.3-75.489 8.22-111.21 20.05 2.06 22.83 2.69 46.131 9.2 68.281 1.7 5.15 4.7294 12.39 11.759 10.05 171.4-7.22 342.58-19.221 513.85-28.361 1.53 7.66-2.1294 19.35-12.059 17.7-160.57 9.58-321.12 20.74-481.89 26.03-11.54-1.98-26.97 4.7206-35.83-5.3594-14.1-24.88-18.449-53.919-21.039-82.009-0.08-9.99-1.11-27.371 13.65-27.031 79.13-15.19 159.42-23.319 239.29-33.639 91.04-10.38 182.08-21.22 273.51-27.52 6.2475-0.36 12.511-0.68594 18.775-0.65782zm8.4547 25.878c-10.16 26.36-23.23 57.16-10.17 84.25-147.6 12.74-295.02 28.369-442.97 36.689-20.01 0.45-40.229 3.12-60.159 0.4-8.55-14.07-17.6-37.529-5.1703-51.059 170.58-24.08 341.66-45.961 512.39-69.491 1.52-0.2 4.5597-0.58907 6.0797-0.78907zm12.48 24.57c80.24 22.92 160.01 47.91 240.33 70.7-14.84 14.36-19.08 37.56-15.35 57.85-77.57-21.52-155.09-43.351-232.06-66.911-15.04-17.39-15.57-49.859 7.0797-61.639zm-69.581 8.6734c-7.4028-0.0318-14.804 0.18312-22.169 0.56563-39.15 1.63-78.79 5.4006-116.22 17.641-1.79 1.11-5.8194 0.99969-5.1594 3.8797 58.27-9.23 117.15-13.081 175.97-16.841 0.93 2.17 9.2891-2.2794 4.4391-2.6594-12.181-1.7938-24.523-2.5329-36.861-2.5859zm73.5 67.84c69.36 11.96 136.39 35.04 204.1 54.1 6.8 0.4 10.38 6.6306 12.83 12.191-73.42-15.29-147.05-29.56-220.32-45.52-10-2.87-1.5494-16.88 3.3906-20.77zm-52.12 40.02c-2.34 8.45-5.6994 17.71-16.459 16.55-119.04 13.96-239.25 14.41-358.86 19.58-4.85-4.01-7.4197-11.75-9.6297-17.82 23.03-5.53 46.881-5.8803 70.391-7.8703 92.36-5.45 184.9-7.6197 277.35-9.6297 12.37-1.04 24.799-0.59936 37.209-0.80936zm42.45 17.959c82.39 19.34 165.64 34.791 248.55 51.741-5.61 42.1-13.57 84.59-27.37 124.9-3.7 16.32-23.32 13.6-35.98 15-69.23 2.04-138.42-3.8903-207.39-9.3203 17.22-10.36 27.88-29.04 31.45-48.57 8.59-44.5 1.4591-90.27-9.2609-133.75zm-47.245 20.712c7.278-0.2024 13.903 1.2797 16.086 9.5485 8.25 27.29 3.5503 56.77-3.1297 83.93-4.34 16.16-11.111 37.119-31.611 37.389-106.8 16.9-215.52 15.711-323.32 18.961 13.57-21.34 10.98-48.23 6.85-72.05 14.23 0.46 30.771-1.7603 42.361-10.27-13.84-5.2-30.93 0.22-42.55 8.95-3.45-20.43-9.9609-40.18-15.611-59.95 111.5-5.32 223.01-10.71 334.54-15.38 4.6681 0.2056 10.724-0.97072 16.384-1.1282zm-225.35 36.653c-3.3302-0.0183-6.8325 0.36032-9.125 0.39536-35.22 1.94-69.339 12.219-104.52 14.439 1.56 5.1 10.92 3.1603 15.4 4.6703 36.34-0.06 71.61-10.31 107.3-15.9-0.7762-2.9025-4.7746-3.5811-9.0562-3.6047zm212.15 108.19c12.412-0.74368 2.2469 23.403-7.9734 21.611-112 19.48-225.87 25.79-339.06 35.1-10.73 4.58-29.939-17.15-13.309-19.63 86.21-14.39 174.11-14.391 261.07-21.891 32.76-3.4 67.35-1.4691 98-15.039 0.4481-0.0775 0.873-0.1276 1.2734-0.1516zm-1.0687 40.483c1.5712-0.012 3.1431-0.01 4.7156 0.019 2.8 11.63 9.5197 30.689-3.3703 38.539-156.64 17.19-314.46 27.651-469.48 57.241-20.45 5.38-43.089 7.5591-60.289 20.739-12.13 20.63-14.181 45.211-17.561 68.431-3.5 37.73-6.3703 77.16 5.5797 113.75 4.91 15.44 23.921 10.849 36.081 13.019 177.47 5.92 355.25 4.8012 532.76 3.8312 4.18 10.01 12.07 24.359 2.7 33.359 4.58 1.68 12.831-2.6506 15.891 0.059-5.63 0.54-11.221 1.4212-16.861 1.8312-182.97-2.34-366.06-1.2212-548.8-11.731-12.69-2.04-30.059 0.6212-36.089-14.019-10.6-23.5-12.051-49.75-14.931-75.02-2.68-44.93-5.1-90.71 3.65-135.12 2.37-16.22 22.001-17.509 34.081-22.909 109.04-30.81 221.45-47.22 333.01-66 61.49-9.16 122.95-18.821 184.79-25.411 4.7025-0.3675 9.4097-0.5708 14.124-0.6079zm37.43 9.9064c1.0619 0.034 2.1474 0.2343 3.2468 0.6218 106.52 3.09 212.59 16.46 318.38 28.88 1.87 11.16 2.86 24.08-4.15 33.75-17.27 3.45-35.02 1.8997-52.45 0.7797-90.42-6.41-179.99-20.79-270.01-30.93-21.75 3.0281-10.945-33.618 4.9844-33.102zm-35.324 52.202c-4.1 26.47-7.0206 53.15-8.0906 79.93-59.12-2.58-116.4 14.89-175.04 18.82-4.82-0.05 2.1397 5.4503 4.0297 2.7703 57.51 4.91 113.57-12.76 170.42-18.3-0.97 25.34 0.3094 50.67 2.6094 75.9-25.06-1.48-49.741 4.9203-74.791 3.8203-4.55-4.98-6.7388 3.1491-3.1688 3.2891 25.63 9.43 53.209 2.82 79.109-1.9 3.87 21.82 9.9203 43.861 22.87 62.111-135.26 4.32-274.82 3.7497-411.72 3.6297-42.39-2.11-85.41-0.4903-127.22-8.8203-10.85-1.4-8.9591-15.299-10.989-23.059-3.92-37.76-6.1603-78.57 10.38-113.82 8.07-17.51 29.409-15.87 45.259-19.77 156.5-24.96 313.87-43.999 471.05-64.009 1.32-0.14 3.9606-0.4406 5.2906-0.5906zm89.169 27.45c68.984-0.1313 138.03 0.625 206.87 5.7 12.94 1.38 26.43 2.2906 38.45 7.5906 4.73 5.4-5.5394 9.81-6.3094 15.5-10.34 43.85 2.44 88.73 10.75 131.85-96.91 6.88-194.78 12.53-289.44 35.88-23.08-16.11-32.639-45.009-36.569-71.709-5.78-41.17-2.5809-83.28 5.7891-123.87 13.62-0.82 27.28 0.1894 40.9-0.8406 9.8512-0.045 19.705-0.081 29.559-0.1zm-139.19 90.552c-3.7954 0.043-7.5591 0.2837-11.202 0.6187-22.86 2.34-45.179 8.1897-67.959 10.98-2.49 1.11 0.8991 2.77 2.2391 2.7 34.75 4.89 68.92-11.009 103.62-4.5891 2.57 0.27 10.321 1.4791 5.8406-1.9109-9.4875-6.27-21.153-7.9269-32.539-7.7984zm400.2 93.494c7.9213 0.21 13.03 11.059 17.567 15.475-101.29 21.97-204.3 41.269-305.18 65.909-11.18-8.7-10.001-28.5-9.2609-40.5 97.23-20.44 196.77-28 295.25-40.78 0.5537-0.086 1.0953-0.1187 1.6234-0.1047zm96.094 45.139c6.2325-0.044 12.219 0.9712 17.044 5.3562 23.82 29.78 25.179 69.9 26.469 106.28-0.5 55.66-7.5294 111.57-22.009 165.32-26.07 19.49-58.12 29.27-87.63 42.5-112.51 45.62-226.6 87.369-341 127.91 36.37-42.45 50.31-98.91 54.37-153.57 5.85-77.78-5.4103-155.81-23.42-231.36 15.18 1.9 30.5 0.6703 45.6-1.4297 104.82-15.72 206.86-46.591 312.05-60.011 5.815 0.15 12.294-0.9516 18.527-0.9953zm-717.96 41.364c85.991 0.132 171.95 2.2374 257.36 12.531 16.9 3.56 35.559 4.6503 50.019 15.02 11.36 16.5 17.03 36.27 21.27 55.67 16.97 91.23 6.47 185.78-15.4 275.29-5.21 17.58-8.9203 36.909-20.72 51.339-22.33 4.84-45.799 1.1406-68.539 2.0906-172.17-8.83-344.43-20.39-515.69-40.2-17.81-9.61-7.2491-37.811-4.1391-53.641 139.22 25.03 279.57 49.08 421.37 50.78 42.44-2.53 91.131-0.05 126.53-27.58 33.36-33.26 39.36-83.209 39.58-128.01-1.52-52.2-11.09-104.28-28.5-153.51-4.18-16.84-26.601-13.899-39.911-17.109-175.6-14.99-352.14-5.3897-528.08-8.7797-15.82-1.04-14.28-20.65-6.65-29.82 52.26-1.74 104.52-2.7003 156.8-3.5203 51.502 0 103.11-0.6308 154.7-0.5515zm80.008 56.75c47.894 0.1149 95.74 1.5062 143.35 6.7812 26.37 1.24 28.75 34.441 32.68 54.331 6.46 57.47 3.7897 117.44-16.22 172.22-8.39 20.38-20.7 45.241-45.6 47.361-51.24 6.73-103.1 0.3094-154.26-4.4906-97.19-10.42-193.78-25.82-289.99-42.92 7.04-11.52 14.31-23.28 17.17-36.65 39.17 5.97 77.6 18.49 117.5 19.57 1.93-1.58 9.4 1.4 9.2-2.8-41.41-7.91-82.35-20.24-124.77-21.15 6.84-37.03 0.6303-74.979-11.98-110.11 69.15 16.92 140.96 4.11 211.08 12.05 5.1 3.6 7.4094-1.7197 2.8094-2.1797-70.47-18.42-144.37-2.5409-215.63-15.011-9.17-24.94-22.029-48.739-34.289-71.909 71.77-0.53 143.52-3.8009 215.31-4.2109 47.805 0.165 95.747-0.9963 143.64-0.8812zm-222.7 133.29c-7.3892 0.019-14.749 0.2638-21.981 0.5313-18.4 2.68-42.19-0.07-57.5 7.4203 47.83 4.73 96.32-1.01 144.17 3.55-20.085-9.57-42.521-11.557-64.689-11.502zm894.23 115.31c11.725 0.3796 23.37 19.945 10.152 25.72-20.72 10.79-43.08 17.931-64.98 25.891-124.82 42.35-251.55 78.999-378.85 113.12-9.13 0.26-21.93 8.7503-30.02 3.0203 13.39-14.01 33.64-20.83 51.68-28.33 134.84-51.32 272.58-94.54 409.68-139.23 0.775-0.155 1.5574-0.2159 2.339-0.1906zm-41.909 75.53c-13.97 61.24 26.221 116.67 59.831 163.01-171.76 59.77-343.02 121.26-514.8 180.85-12.18-67.51-0.88-144.35 37.2-203.77 138.55-47.07 277.51-93.04 416.25-139.62 0.38-0.12 1.1388-0.3503 1.5188-0.4703zm-951.38 22.6c170.58-0.32 340.49 19.751 510.12 35.791 4.4 10.9 8.6994 23.939 4.6094 35.609-4.73 10.07-17.07 6.59-25.73 5.8-152.43-16.62-305.01-34.599-458.35-39.439-11.88 0.9-24.15 0.14-35.6 3.95-21.42 18.05-29.01 46.92-32.83 73.53-4.17 33.86-4.9594 70.36 9.6906 101.95 15.73 13.02 35.569 19.32 54.269 26.8 139.28 49.84 283.09 85.66 426.02 123.25 0.11 16.64 1.6509 36.209-0.5891 51.259-118.37-33.79-235.98-70.879-353.15-108.79-44.59-15.9-90.221-29.54-133.06-49.92-14.04-5.18-15.33-22.36-18.23-34.83-7.96-57.24-8.6703-115.55-1.1203-172.87 3.33-15.81 5.4297-33.07 16.23-45.78 11.48-5.98 25.27-4.6209 37.72-6.3109zm25.083 64.594c12.784 0.084 25.567 1.3387 38.317 2.1563 147.29 12.75 294.13 30.111 441 46.841-4.11 12.9-8.1797 25.921-12.18 38.891-82-20.91-168.12-18.62-252.14-14.45-2.49 1.46-8.9088-1.34-9.7188 2.75 75.27 4.95 150.98 1.1697 226.04 9.9297 11.66 2.22 23.44 5.1391 35.4 3.1891-14.69 57.74-24.219 118.09-16.209 177.6-113.48-22.67-226.76-46.67-339.02-74.9-36.29-9.99-73.06-18.91-108.07-32.95-10.22-4.16-22.33-9.21-24.58-21.4-10.08-36.83-13.991-76.449-6.7906-114.14 2.55-8.43 5.1303-21.06 15.17-23.15 4.26-0.2925 8.5215-0.395 12.783-0.3672zm883.07 42.477c-108.22 53.62-228.7 72.54-341.94 112.13-4.37 1.1-16.891 7.7903-4.8406 4.3703 112.93-31.03 232.24-49.35 335.5-107.68 2.32-1.35 14.46-8.9503 11.28-8.8203zm145.84 39c18.13-0.11 11.439 31.17 1.4891 39.55-191.45 78.28-383.53 155.05-575.16 232.86-15.05 2.96 1.6997-17.71 5.3297-23.92 81.38-20.19 158.98-54.38 235.67-88.23 112.58-49.85 222.09-106.43 332.67-160.26zm-720.1 31.38c-1.16 3.49 4.7703 2.68 6.9703 4 42.56 9.33 84.919 25.81 129.09 23.62 7.13-0.7-3.92-4.5891-5.95-3.9891-43.5-6.93-85.699-23.701-130.11-23.631zm419.61 30.842c-2.6013 0-6.2432 0.5028-7.2782 0.7078-78.41 9.09-156.65 29.301-226.57 66.531-7.4 5.06 3.6306 1.8991 6.2406 0.4891 73.99-29.01 151.16-48.34 228.64-65.37 3.13-1.84 1.57-2.3541-1.0312-2.3578zm-428.76 15.478c-3.03 2.52 6.1894 4.2406 7.9594 5.7406 41.55 14.79 86.681 26.91 131.01 21.05-45.06-9.32-93-17.161-138.97-26.791z" fill="#26231f"/>
<path id="path6" d="m1987 40.745c-5.8238-0.000879-11.677 0.48906-17.452 0.76406-7.98 1.05-16.701 1.9909-22.731 8.0109 8.18 69.9 18.66 139.57 30.7 208.91 3.86 16.53 5.7803 33.98 13.87 49.15 19.6-1.79 38.87-7.0594 57.63-12.959-15.86-84.61-32.159-169.3-51.589-253.19-3.45-0.50625-6.9338-0.68385-10.428-0.68437zm-61.083 27.258c-0.4767 0.02094-0.9919 0.1375-1.5094 0.3375-34.19 19.29-62.26 47.699-92.2 72.839-6.69 3.96-3.2103 11.601-2.1203 17.591 11.88 52.63 22.1 105.66 34.18 158.21 31.96-4.58 63.621-11.78 95.491-17.27-9.83-76.43-20.84-152.74-31.5-229.06 0.18-1.92-0.9105-2.7097-2.3406-2.6469zm55.973 31.739c9.6984-0.26618 16.58 8.8813 18.777 17.938-9.52 8.77-27.009 14.9-38.739 6.9703-2.54-10.05 4.4891-23.461 15.639-24.191 1.495-0.45 2.9379-0.67916 4.3234-0.7172z" fill="#e1033c"/>
<path id="path12" d="m1981.9 99.742c-1.3855 0.03803-2.8284 0.2672-4.3234 0.7172-11.15 0.73-18.179 14.141-15.639 24.191 11.73 7.93 29.219 1.7997 38.739-6.9703-2.1963-9.0562-9.0782-18.204-18.777-17.938zm87.825 18.62c-1.0009-0.003-2.004 0.006-3.0078 0.0281-9.66 1.02-8.7406 19.33 2.8594 17.15 29.6 2.45 60.761 9.7594 89.791 5.3594-28.917-10.22-58.612-22.43-89.642-22.538zm7.1766 30.745c-2.0132-0.006-4.0341 0.0487-6.0641 0.17187-7.19 1.03-8.8206 15.91-0.2906 16.3 26.62 5.15 53.93 5.2306 80.85 8.1406 4.31-0.05 10.301 1.6903 12.861-2.7297-28.781-7.7812-57.159-21.786-87.356-21.883zm-2.2047 33.223c-0.9718-0.00057-1.9456 0.0125-2.9203 0.0391-8.43-0.23-9.98 16.659-0.6 16.539 27.91 4.83 56.391 6.2712 84.641 8.0312 0.71-0.01 10.32 0.09 6.1203-2.9-28.384-8.9028-57.116-21.692-87.241-21.709zm515.8 1303.6c-2.2953-0.021-4.5919 0.1588-6.8469 0.5312-7.99 1.7-18.85 5.8194-18.85 15.409-4.45 22.19-10.23 44.639-8.2797 67.459 0.81 5.62 2.0394 14.03 8.8094 15.32 17.45-0.36 34.681-8.0594 47.581-19.359-0.88-24.5-2.2003-49.031-2.9203-73.561-5.73-3.87-12.608-5.7368-19.494-5.8zm-87.15 22.109c-1.5632-0.01-3.1313 0.095-4.6969 0.3313-7.59 1.63-18.5 4.4-19.93 13.45-5.12 24.1-10.809 48.6-8.2094 73.43 1.07 4.75 3.23 10.971 8.85 11.661 17.32-0.08 33.07-8.7609 47.05-18.211-1.44-25.05-1.4203-50.429-3.6203-75.339-5.9881-3.0712-12.67-5.2783-19.444-5.3219zm-82.206 15.089c-2.229-0.031-4.4321 0.1044-6.5297 0.3719-6.38 0.76-12.55 3.8906-17.07 8.2906-6.44 22.91-11.571 46.719-10.861 70.659 0.85 7.21 0.1306 18.441 9.8406 19.541 16.88-0.76 33.29-8.2097 46.25-18.53-0.06-24.84-1.6503-49.79-3.0703-74.62-4.9575-4.0275-11.872-5.6197-18.559-5.7125z" fill="#fec500"/>
<path id="path20" d="m2147 300.1c-0.6637 0.001-1.4578 0.155-2.3953 0.49062-117.97 17.67-235.94 35.34-353.9 53-13.25 45.42-22.59 93.26-17 140.68 3.05 23.62 11.311 50.009 32.991 62.739 22.91 0.45 45.64-3.2888 68.35-5.9188 100.52-13.34 200.64-29.671 300.63-46.411 0.78-5.89 3.2491-13.99 1.2891-18.55-117.97 15.86-235.78 33.27-353.69 49.58-43.57-43.37-39.48-118.94-3.1203-165.5 19.64-13.58 44.599-15.98 67.259-21.75 83.93-16.27 169.03-26.4 254.08-34.3 6.1535 0.0725 11.92-14.071 5.5047-14.059zm20.234 4.15c-3.68 4.68-3.2003 12.62-5.1703 18.35 60.31 34.82 120.03 71.48 183.78 99.72 11.79 3.47 1.5188-6.4009-2.3312-8.9609-42.89-33.88-89.769-62.349-136.69-90.239-12.89-6.53-25.291-16.24-39.591-18.87zm28.18 186.89c-8.36 4.9-8.8897 19.089 1.6203 22.009 46.67 15.48 94.99 25.67 142.8 37-47.03-21.48-94.12-45.979-144.42-59.009z" fill="#c35f10"/>
<path id="path24" d="m2143.4 338.43c5.9-2.28 1.19 7 2.67 9.5 1.66 38.17 2.9 79.11 21.6 113.24-84.82 15.49-172.27 30.23-258.68 41.81-24.79 2.93-49.63 6.84-74.66 6-7.43-0.35-9.02-9.1-11.66-14.64-8.23-29.38-13.32-62.21-1.74-91.38 7.36-19.25 31.04-19.32 47.87-24.16 90.81-17.86 182.83-28.73 274.6-40.37m-53.77 21.1c-34.89 3.54-67.3 17.99-101.25 25.76-2.68-0.26-3.34 3.4-0.28 2.81 41.87 0.31 80.05-20.01 120.92-26.29-2.78-4.96-13.78-1.85-19.39-2.28m-2.02 40.01c-21.11 1.9-42.64 3.99-62.54 11.69-0.34 5.7 8.16 1.09 11.34 2.24 28.43-2.73 56.99-5.28 85.11-10.37-9.18-7-23.22-3-33.91-3.56z" fill="#f0e7af"/>
<path id="path26" d="m2164 351.18c-1.13 31.25-2.8997 64.421 10.12 93.741 7.57 18.26 25.07 29.349 41.9 38.109 38.38 18.98 79.069 32.74 120.01 44.97-5.19-23.83-7.9797-48.55-4.8297-72.85 0.08-9.75 6.6297-16.2 13.78-21.45-3.95-9.49-16.29-13.41-24.92-18.72-50.75-24.17-103.17-44.87-156.06-63.8zm153.09 769.2c-9.8548 0.019-19.708 0.055-29.559 0.1-13.62 1.03-27.28 0.021-40.9 0.8406-8.37 40.59-11.569 82.7-5.7891 123.87 3.93 26.7 13.489 55.599 36.569 71.709 94.66-23.35 192.53-29 289.44-35.88-8.31-43.12-21.09-88-10.75-131.85 0.77-5.69 11.039-10.1 6.3094-15.5-12.02-5.3-25.51-6.2106-38.45-7.5906-68.836-5.075-137.89-5.8313-206.87-5.7z" fill="#b2946d"/>
<path id="path34" d="m2169.3 528.34c-0.294-0.008-0.5794-0.00063-0.8547 0.0234-117.51 18.06-235.08 35.921-352.69 53.291-11.49 1.12 1.65 2.0397 3.75 0.87969 118.89-12.16 238.29-21.029 356.4-39.659 19.869 0.89125 2.5093-14.285-6.6047-14.534zm48.005 27.844c-0.77 21.57-0.3897 45.451-13.28 63.961 30.27 8.03 61.551 13.67 92.211 20.78 10.64 2.1 21.279 4.3391 31.789 7.0891 23.69 3.81 46.921 10.861 70.861 12.941 8.69 1.88 12.419-7.6897 12.869-14.48 0.69-13.82-1.3897-27.76-4.8797-41.13-26.83-9.2-54.309-16.761-81.609-24.561-35.68-9.01-71.011-22.95-107.96-24.6zm-134.65 82.45c-12.062-0.0377-24.209 0.93749-36.184 0.85-79.79 2.45-159.47 7.6703-239.2 11.37 1.42 5.15 3.43 11.71 7.15 15.13 96.59-7.99 193.47-16.119 289.8-25.739-7.1213-1.2-14.328-1.5883-21.566-1.6109z" fill="#7e7416"/>
<path id="path38" d="m2175.6 572.57c19.96-9.78 23.62 17.81 12.11 27.23-13.53 17.07-36.81 16.86-56.32 20.64-87.98 11.61-176.82 14.83-265.42 17.62-15.78-1.12-32.79 2.1-47.95-1.95 4.42-10.05 2.32-20.98 3.23-31.55 45.2-9.23 91.63-11.56 137.53-15.75 72.23-6.04 144.53-11.12 216.82-16.24z" fill="#80827f"/>
<path id="path42" d="m2272.3 639.84c-6.2644-0.0281-12.528 0.29782-18.775 0.65782-91.43 6.3-182.47 17.14-273.51 27.52-79.87 10.32-160.16 18.449-239.29 33.639-14.76-0.34-13.73 17.041-13.65 27.031 2.59 28.09 6.9391 57.129 21.039 82.009 8.86 10.08 24.29 3.3794 35.83 5.3594 160.77-5.29 321.32-16.45 481.89-26.03 9.93 1.65 13.589-10.04 12.059-17.7-171.27 9.14-342.45 21.141-513.85 28.361-7.03 2.34-10.059-4.9-11.759-10.05-6.51-22.15-7.14-45.451-9.2-68.281 35.72-11.83 74.179-13.75 111.21-20.05 139.92-19.28 280.27-35.319 420.6-51.209 4.89-0.39 6.4503-7.66 3.6703-11.1-2.0875-0.1-4.1759-0.14844-6.2641-0.15782zm23.875 1.0781c0.59 6.24 1.6597 13.7 9.0297 14.93 70.18 28.85 139.94 59.089 211.98 83.109 8.72 5.07 21.621 1.02 22.691-9.65-69.85-28.93-140.61-56.05-211.91-81.3-10.51-2.75-21.149-4.9891-31.789-7.0891zm0.8 125.88c-4.94 3.89-13.391 17.9-3.3906 20.77 73.27 15.96 146.9 30.23 220.32 45.52-2.45-5.56-6.0297-11.791-12.83-12.191-67.71-19.06-134.74-42.14-204.1-54.1z" fill="#6b1f7c"/>
<path id="path46" d="m2280.8 665.72c-1.52 0.2-4.5597 0.58907-6.0797 0.78907-170.7 23.53-341.8 45.41-512.4 69.49-12.43 13.53-3.3797 36.989 5.1703 51.059 19.93 2.72 40.149 0.05 60.159-0.4 147.95-8.32 295.37-23.949 442.97-36.689-13.06-27.09 0.01-57.89 10.17-84.25zm-57.102 33.244c12.338 0.053 24.68 0.79219 36.861 2.5859 4.85 0.38-3.5091 4.8294-4.4391 2.6594-58.82 3.76-117.7 7.6106-175.97 16.841-0.66-2.88 3.3694-2.7697 5.1594-3.8797 37.43-12.24 77.07-16.011 116.22-17.641 7.365-0.38251 14.766-0.59744 22.169-0.56563zm16.366 146.53c-5.6607 0.15744-11.716 1.3338-16.384 1.1282-111.53 4.67-223.04 10.06-334.54 15.38 5.65 19.77 12.161 39.52 15.611 59.95 11.62-8.73 28.71-14.15 42.55-8.95-11.59 8.51-28.131 10.73-42.361 10.27 4.13 23.82 6.72 50.71-6.85 72.05 107.8-3.25 216.52-2.061 323.32-18.961 20.5-0.27 27.271-21.229 31.611-37.389 6.68-27.16 11.38-56.64 3.1297-83.93-2.1825-8.2688-8.8079-9.7509-16.086-9.5485zm-225.35 36.653c4.2816 0.0236 8.28 0.70224 9.0562 3.6047-35.69 5.59-70.96 15.84-107.3 15.9-4.48-1.51-13.84 0.42968-15.4-4.6703 35.18-2.22 69.299-12.499 104.52-14.439 2.2925-0.035 5.7948-0.41368 9.125-0.39536zm21.506 565.53c-47.894-0.1151-95.836 1.0462-143.64 0.8812-71.79 0.41-143.54 3.6809-215.31 4.2109 12.26 23.17 25.119 46.969 34.289 71.909 71.26 12.47 145.16-3.4091 215.63 15.011 4.6 0.46 2.2906 5.7797-2.8094 2.1797-70.12-7.94-141.93 4.87-211.08-12.05 12.61 35.13 18.82 73.079 11.98 110.11 42.42 0.91 83.36 13.24 124.77 21.15 0.2 4.2-7.27 1.22-9.2 2.8-39.9-1.08-78.33-13.6-117.5-19.57-2.86 13.37-10.13 25.13-17.17 36.65 96.21 17.1 192.8 32.5 289.99 42.92 51.16 4.8 103.02 11.221 154.26 4.4906 24.9-2.12 37.21-26.981 45.6-47.361 20.01-54.78 22.68-114.75 16.22-172.22-3.93-19.89-6.3097-53.091-32.68-54.331-47.61-5.275-95.456-6.6663-143.35-6.7812zm-222.7 133.29c22.168-0.056 44.604 1.9316 64.689 11.502-47.85-4.56-96.34 1.18-144.17-3.55 15.31-7.49 39.1-4.7403 57.5-7.4203 7.2325-0.2675 14.592-0.5126 21.981-0.5313zm-73.978 278.03c-4.2613-0.028-8.5228 0.075-12.783 0.3672-10.04 2.09-12.62 14.72-15.17 23.15-7.2 37.69-3.2894 77.309 6.7906 114.14 2.25 12.19 14.36 17.24 24.58 21.4 35.01 14.04 71.78 22.96 108.07 32.95 112.26 28.23 225.54 52.23 339.02 74.9-8.01-59.51 1.5194-119.86 16.209-177.6-11.96 1.95-23.74-0.9691-35.4-3.1891-75.06-8.76-150.77-4.9797-226.04-9.9297 0.81-4.09 7.2288-1.29 9.7188-2.75 84.02-4.17 170.14-6.46 252.14 14.45 4-12.97 8.0697-25.991 12.18-38.891-146.87-16.73-293.71-34.091-441-46.841-12.75-0.8176-25.534-2.0728-38.317-2.1563zm308.81 112.86c44.41-0.07 86.609 16.701 130.11 23.631 2.03-0.6 13.08 3.2891 5.95 3.9891-44.17 2.19-86.529-14.29-129.09-23.62-2.2-1.32-8.1303-0.51-6.9703-4zm-9.15 46.32c45.97 9.63 93.91 17.471 138.97 26.791-44.33 5.86-89.461-6.26-131.01-21.05-1.77-1.5-10.989-3.2206-7.9594-5.7406z" fill="#fefbde"/>
<path id="path48" d="m2293.2 690.29c-22.65 11.78-22.12 44.249-7.0797 61.639 76.97 23.56 154.49 45.391 232.06 66.911-3.73-20.29 0.51-43.49 15.35-57.85-80.32-22.79-160.09-47.78-240.33-70.7zm372.56 1081.5c-0.38 0.12-1.1388 0.3503-1.5188 0.4703-138.74 46.58-277.7 92.55-416.25 139.62-38.08 59.42-49.38 136.26-37.2 203.77 171.78-59.59 343.04-121.08 514.8-180.85-33.61-46.34-73.801-101.77-59.831-163.01zm-43.23 129.67c3.18-0.13-8.9597 7.4703-11.28 8.8203-103.26 58.33-222.57 76.65-335.5 107.68-12.05 3.42 0.4706-3.2703 4.8406-4.3703 113.24-39.59 233.72-58.51 341.94-112.13zm-154.65 101.22c2.6012 0 4.1612 0.5178 1.0312 2.3578-77.48 17.03-154.65 36.36-228.64 65.37-2.61 1.41-13.641 4.5709-6.2406-0.4891 69.92-37.23 148.16-57.441 226.57-66.531 1.035-0.205 4.6769-0.7116 7.2782-0.7078z" fill="#d9b68b"/>
<path id="path54" d="m2244.8 806.82c-12.41 0.21-24.839-0.23064-37.209 0.80936-92.45 2.01-184.99 4.1797-277.35 9.6297-23.51 1.99-47.361 2.3403-70.391 7.8703 2.21 6.07 4.7797 13.81 9.6297 17.82 119.61-5.17 239.82-5.6197 358.86-19.58 10.76 1.16 14.119-8.1 16.459-16.55zm-17.997 183.52c-0.4004 0.024-0.8253 0.0741-1.2734 0.1516-30.65 13.57-65.24 11.639-98 15.039-86.96 7.5-174.86 7.5006-261.07 21.891-16.63 2.48 2.5794 24.21 13.309 19.63 113.19-9.31 227.06-15.62 339.06-35.1 10.22 1.7922 20.385-22.355 7.9734-21.611z" fill="#00a139"/>
<path id="path56" d="m2287.3 824.78c82.39 19.34 165.64 34.79 248.55 51.74-5.61 42.1-13.57 84.59-27.37 124.9-3.7 16.32-23.32 13.6-35.98 15-69.23 2.04-138.42-3.89-207.39-9.32 17.22-10.36 27.88-29.04 31.45-48.57 8.59-44.5 1.46-90.27-9.26-133.75m56.74 53.5c1.1 33.15 2.95 69.32-13.21 99.49 6.7 5.91 19.76 5.84 21.07-4.99 3.88-30.74 2.31-66.81-7.86-94.5m22.87-0.15c1.39 32.8 3.62 69.12-12.91 98.84 7.29 8.96 24.27 4.36 22.04-9.08 1.69-29.23 1.7-63.3-9.13-89.76m32.98 6.8c1.58 33.17 4.25 70-12.79 100.03 9.69 9.4 23.76 1.27 22.5-11.44 0.32-28.96 1.72-62.13-9.71-88.59z" fill="#007429"/>
<path id="path60" d="m2366.9 878.13c1.39 32.8 3.6191 69.121-12.911 98.841 7.29 8.96 24.271 4.3603 22.041-9.0797 1.69-29.23 1.7003-63.301-9.1297-89.761zm-22.87 0.15c1.1 33.15 2.9491 69.321-13.211 99.491 6.7 5.91 19.76 5.8394 21.07-4.9906 3.88-30.74 2.3106-66.81-7.8594-94.5zm55.85 6.65c1.58 33.17 4.2494 70-12.791 100.03 9.69 9.4 23.76 1.271 22.5-11.439 0.32-28.96 1.7206-62.131-9.7094-88.591z" fill="#38a825"/>
<path id="path70" d="m2211.6 1031.4c6.27-0.49 12.55-0.69 18.84-0.59 2.8 11.63 9.52 30.69-3.37 38.54-156.64 17.19-314.46 27.65-469.48 57.24-20.45 5.38-43.09 7.56-60.29 20.74-12.13 20.63-14.18 45.21-17.56 68.43-3.5 37.73-6.37 77.16 5.58 113.75 4.91 15.44 23.92 10.85 36.08 13.02 177.47 5.92 355.25 4.8 532.76 3.83 4.18 10.01 12.07 24.36 2.7 33.36 4.58 1.68 12.83-2.65 15.89 0.06-5.63 0.54-11.22 1.42-16.86 1.83-182.97-2.34-366.06-1.22-548.8-11.73-12.69-2.04-30.06 0.62-36.09-14.02-10.6-23.5-12.05-49.75-14.93-75.02-2.68-44.93-5.1-90.71 3.65-135.12 2.37-16.22 22-17.51 34.08-22.91 109.04-30.81 221.45-47.22 333.01-66 61.49-9.16 122.95-18.82 184.79-25.41z" fill="#f27f21"/>
<path id="path72" d="m2263.2 1040.7c-15.929-0.5162-26.734 36.13-4.9844 33.102 90.02 10.14 179.59 24.52 270.01 30.93 17.43 1.12 35.18 2.6703 52.45-0.7797 7.01-9.67 6.02-22.59 4.15-33.75-105.79-12.42-211.86-25.79-318.38-28.88-1.0994-0.3875-2.1849-0.5874-3.2468-0.6218zm314.86 263.7c-0.5281-0.014-1.0697 0.019-1.6234 0.1047-98.48 12.78-198.02 20.34-295.25 40.78-0.74 12-1.9191 31.8 9.2609 40.5 100.88-24.64 203.89-43.939 305.18-65.909-4.5375-4.4156-9.6459-15.265-17.567-15.475z" fill="#d2650c"/>
<path id="path74" d="m2222.6 1093.5c1.32-0.14 3.96-0.44 5.29-0.59-4.1 26.47-7.02 53.15-8.09 79.93-59.12-2.58-116.4 14.89-175.04 18.82-4.82-0.05 2.14 5.45 4.03 2.77 57.51 4.91 113.57-12.76 170.42-18.3-0.97 25.34 0.31 50.67 2.61 75.9-25.06-1.48-49.74 4.92-74.79 3.82-4.55-4.98-6.74 3.15-3.17 3.29 25.63 9.43 53.21 2.82 79.11-1.9 3.87 21.82 9.92 43.86 22.87 62.11-135.26 4.32-274.82 3.75-411.72 3.63-42.39-2.11-85.41-0.49-127.22-8.82-10.85-1.4-8.96-15.3-10.99-23.06-3.92-37.76-6.16-78.57 10.38-113.82 8.07-17.51 29.41-15.87 45.26-19.77 156.5-24.96 313.87-44 471.05-64.01m-55.93 118.03c-22.86 2.34-45.18 8.19-67.96 10.98-2.49 1.11 0.9 2.77 2.24 2.7 34.75 4.89 68.92-11.01 103.62-4.59 2.57 0.27 10.32 1.48 5.84-1.91-12.65-8.36-29.17-8.52-43.74-7.18z" fill="#e0dcbf"/>
<path id="path82" d="m2655.6 1350.6c11.63 0.3 25.92-4.41 35.57 4.36 23.82 29.78 25.18 69.9 26.47 106.28-0.5 55.66-7.53 111.57-22.01 165.32-26.07 19.49-58.12 29.27-87.63 42.5-112.51 45.62-226.6 87.37-341 127.91 36.37-42.45 50.31-98.91 54.37-153.57 5.85-77.78-5.41-155.81-23.42-231.36 15.18 1.9 30.5 0.67 45.6-1.43 104.82-15.72 206.86-46.59 312.05-60.01m-25.05 113.01c-70.17 2.81-140.02 11.97-209 25-19.75 4.34-40.02 7.94-58.52 16.38-4 1.99-10.57 4.52-7.57 10.51 9.71 48.73 15.17 100.1 1.75 148.66 92.91-23.09 186.13-47.08 275.77-81.14 15.53-7.71 37.34-12.23 42.92-31.04 8.5-22.93 15.66-48.71 7.93-72.8-7.7-21.53-35.79-15.11-53.28-15.57z" fill="#ae0915"/>
<path id="path98" d="m2707.7 1696.3c-0.7816-0.025-1.564 0.036-2.339 0.1906-137.1 44.69-274.84 87.91-409.68 139.23-18.04 7.5-38.29 14.32-51.68 28.33 8.09 5.73 20.89-2.7603 30.02-3.0203 127.3-34.12 254.03-70.769 378.85-113.12 21.9-7.96 44.26-15.101 64.98-25.891 13.219-5.775 1.5731-25.341-10.152-25.72zm-993.29 98.13c-12.45 1.69-26.24 0.3309-37.72 6.3109-10.8 12.71-12.9 29.97-16.23 45.78-7.55 57.32-6.8397 115.63 1.1203 172.87 2.9 12.47 4.1897 29.65 18.23 34.83 42.84 20.38 88.471 34.02 133.06 49.92 117.17 37.91 234.78 74.999 353.15 108.79 2.24-15.05 0.6991-34.619 0.5891-51.259-142.93-37.59-286.74-73.41-426.02-123.25-18.7-7.48-38.539-13.78-54.269-26.8-14.65-31.59-13.861-68.09-9.6906-101.95 3.82-26.61 11.41-55.48 32.83-73.53 11.45-3.81 23.72-3.05 35.6-3.95 153.34 4.84 305.92 22.819 458.35 39.439 8.66 0.79 21 4.27 25.73-5.8 4.09-11.67-0.2094-24.709-4.6094-35.609-169.63-16.04-339.54-36.111-510.12-35.791zm1054 146.07c-110.58 53.83-220.09 110.41-332.67 160.26-76.69 33.85-154.29 68.04-235.67 88.23-3.63 6.21-20.38 26.88-5.3297 23.92 191.63-77.81 383.71-154.58 575.16-232.86 9.95-8.38 16.641-39.66-1.4891-39.55z" fill="#078cc9"/>
</g>
</svg>
