<?xml version="1.0" encoding="utf-8"?>
<!-- Svg Vector Icons : http://www.onlinewebfonts.com/icon -->
<!DOCTYPE svg PUBLIC "-//W3C//DTD SVG 1.1//EN" "http://www.w3.org/Graphics/SVG/1.1/DTD/svg11.dtd">
<svg version="1.1" xmlns="http://www.w3.org/2000/svg" xmlns:xlink="http://www.w3.org/1999/xlink" x="0px" y="0px" viewBox="0 0 1000 1000" enable-background="new 0 0 1000 1000" xml:space="preserve">
<metadata> Svg Vector Icons : http://www.onlinewebfonts.com/icon </metadata>
<g><path d="M847.5,189.5L823,166.1l59.7-58.1L584.8,35.3l75.1,289.6l58.6-57l22.7,21.2c91.3,85.2,123.7,210.7,84.9,327.7c-39.8,119.8-143.3,202.9-270.4,216.9c-12.5,1.2-18.8,8.4-17.6,23.3V961c0,20,21.7,15.9,21.7,15.9C805,955,989.8,758.3,990,518.4C989.9,393.7,939.4,276.9,847.5,189.5z"/><path d="M440.2,23.2C194.9,44.9,10.1,241.6,10,481.5c0.1,124.8,50.6,241.5,142.4,328.9l24.6,23.4l-59.7,58.1l297.9,72.7L340,675l-58.6,57.1l-22.7-21.2c-91.2-85.2-123.7-210.7-84.9-327.7c39.8-119.8,143.3-203,270.5-216.9c12.5-1.2,18.8-8.4,17.6-23.3V39C462,19,440.3,23.2,440.2,23.2z"/></g>
</svg>